# xmcd
# 
# Track frame offsets:
#     182
#     18287
#     32640
#     52400
#     71852
#     86342
#     96530
#     110855
#     131130
#     150252
# 
# Disc length: 2233
# 
# Revision: 7
# Processed by: cddbd v1.5.2PL0 Copyright (c) Steve Scherf et al.
# Submitted via: fre:ac v1.0.31
# 
DISCID=8b08b70a
DTITLE=Columbia Blues - Buddy Guy and Junior Wells Play The Blues
DYEAR=1972
DGENRE=Blues
TTITLE0=A Man Of Many Words
TTITLE1=My Baby She Left Me (She Left Me A Mule To Ride)
TTITLE2=a. Come On In This House  b. Have Mercy Baby
TTITLE3=T-Bone Shuffle
TTITLE4=A Poor Man's Plea
TTITLE5=Messin' With The Kid
TTITLE6=This Old Fool
TTITLE7=I Don't Know
TTITLE8=Bad Bad Whiskey
TTITLE9=Honeydripper
EXTD=
EXTT0=
EXTT1=
EXTT2=
EXTT3=
EXTT4=
EXTT5=
EXTT6=
EXTT7=
EXTT8=
EXTT9=
PLAYORDER=
